<svg xmlns="http://www.w3.org/2000/svg" xmlns:xlink="http://www.w3.org/1999/xlink" width="200" zoomAndPan="magnify" viewBox="0 0 150 74.999997" height="100" preserveAspectRatio="xMidYMid meet" version="1.0"><defs><clipPath id="c9454ff784"><path d="M 63 22.5 L 87.601562 22.5 L 87.601562 52.5 L 63 52.5 Z M 63 22.5 " clip-rule="nonzero"/></clipPath></defs><g clip-path="url(#c9454ff784)"><path fill="#000000" d="M 83.609375 38.398438 C 83.652344 42.925781 87.539062 44.433594 87.582031 44.453125 C 87.546875 44.558594 86.960938 46.601562 85.535156 48.707031 C 84.300781 50.53125 83.019531 52.347656 81.003906 52.386719 C 79.023438 52.421875 78.386719 51.195312 76.121094 51.195312 C 73.859375 51.195312 73.152344 52.347656 71.277344 52.421875 C 69.328125 52.496094 67.847656 50.449219 66.605469 48.636719 C 64.0625 44.917969 62.121094 38.136719 64.730469 33.558594 C 66.023438 31.285156 68.339844 29.84375 70.851562 29.808594 C 72.761719 29.769531 74.566406 31.109375 75.734375 31.109375 C 76.902344 31.109375 79.09375 29.5 81.398438 29.734375 C 82.363281 29.777344 85.070312 30.128906 86.808594 32.703125 C 86.667969 32.792969 83.578125 34.613281 83.609375 38.398438 M 79.886719 27.277344 C 80.921875 26.011719 81.617188 24.253906 81.425781 22.5 C 79.9375 22.5625 78.136719 23.503906 77.070312 24.769531 C 76.113281 25.886719 75.273438 27.679688 75.5 29.398438 C 77.160156 29.527344 78.855469 28.542969 79.886719 27.277344 " fill-opacity="1" fill-rule="nonzero"/></g></svg>